<?xml version="1.0" encoding="UTF-8"?>
<svg id="Layer_1" data-name="Layer 1" xmlns="http://www.w3.org/2000/svg" viewBox="0 0 100 100">
  <defs>
    <style>
      .cls-1 {
        fill: #fff;
      }
    </style>
  </defs>
  <path d="M35.96,2.2h51.36c5.78,0,10.48,4.7,10.48,10.48v50.6c0,19.05-15.47,34.52-34.52,34.52H12.68c-5.78,0-10.48-4.7-10.48-10.48v-51.36C2.2,17.33,17.33,2.2,35.96,2.2Z"/>
  <path class="cls-1" d="M43.46,16.41c1.5,0,2.86.61,3.84,1.59.98.98,1.59,2.34,1.59,3.84v10.86c0,3-2.43,5.43-5.43,5.43-1.5,0-2.86.61-3.84,1.59-.98.98-1.59,2.34-1.59,3.84,0,3-2.43,5.43-5.43,5.43h-10.86c-1.5,0-2.86-.61-3.84-1.59s-1.59-2.34-1.59-3.84.61-2.86,1.59-3.84c.98-.98,2.34-1.59,3.84-1.59h10.86c3,0,5.43-2.43,5.43-5.43v-10.86c0-1.5.61-2.86,1.59-3.84.98-.98,2.34-1.59,3.84-1.59Z"/>
  <path class="cls-1" d="M63.56,41.73c.98-.98,2.34-1.59,3.84-1.59s2.86.61,3.84,1.59c.98.98,1.59,2.34,1.59,3.84s.61,2.86,1.59,3.84c.98.98,2.34,1.59,3.84,1.59s2.86.61,3.84,1.59c.98.98,1.59,2.34,1.59,3.84v10.86c0,3-2.43,5.43-5.43,5.43-1.5,0-2.86.61-3.84,1.59-.98.98-1.59,2.34-1.59,3.84,0,3-2.43,5.43-5.43,5.43-1.5,0-2.86-.61-3.84-1.59-.98-.98-1.59-2.34-1.59-3.84s.61-2.86,1.59-3.84c.98-.98,2.34-1.59,3.84-1.59,3,0,5.43-2.43,5.43-5.43v-10.86c0-1.5-.61-2.86-1.59-3.84-.98-.98-2.34-1.59-3.84-1.59-3,0-5.43,2.43-5.43,5.43h0c0,3-2.43,5.43-5.43,5.43-1.5,0-2.86-.61-3.84-1.59-.98-.98-1.59-2.34-1.59-3.84h0c0-1.5-.61-2.86-1.59-3.84-.98-.98-2.34-1.59-3.84-1.59-3,0-5.43,2.43-5.43,5.43v10.86c0,1.5.61,2.86,1.59,3.84s2.34,1.59,3.84,1.59,2.86.61,3.84,1.59c.98.98,1.59,2.34,1.59,3.84,0,3-2.43,5.43-5.43,5.43-1.5,0-2.86-.61-3.84-1.59-.98-.98-1.59-2.34-1.59-3.84s-.61-2.86-1.59-3.84c-.98-.98-2.34-1.59-3.84-1.59s-2.86-.61-3.84-1.59c-.98-.98-1.59-2.34-1.59-3.84v-10.86c0-3,2.43-5.43,5.43-5.43s5.43-2.43,5.43-5.43c0-1.5.61-2.86,1.59-3.84.98-.98,2.34-1.59,3.84-1.59s2.86.61,3.84,1.59c.98.98,1.59,2.34,1.59,3.84s.61,2.86,1.59,3.84c.98.98,2.34,1.59,3.84,1.59,3,0,5.43-2.43,5.43-5.43,0-1.5.61-2.86,1.59-3.84Z"/>
</svg>