<?xml version="1.0" encoding="UTF-8"?>
<svg id="Layer_1" data-name="Layer 1" xmlns="http://www.w3.org/2000/svg" viewBox="0 0 100 100">
  <defs>
    <style>
      .cls-1 {
        fill: #fff;
      }
    </style>
  </defs>
  <path class="cls-1" d="M87.33,2.2h-51.37C17.32,2.2,2.19,17.32,2.19,35.96v51.37c0,5.79,4.7,10.48,10.49,10.48h50.6c19.06,0,34.52-15.46,34.52-34.52V12.68c0-5.79-4.69-10.49-10.48-10.49ZM17.89,47.42c-.99-.99-1.59-2.35-1.59-3.85s.6-2.85,1.59-3.84c.98-.98,2.34-1.59,3.84-1.59h10.86c3,0,5.43-2.43,5.43-5.43v-10.86c0-1.5.61-2.86,1.6-3.84.98-.99,2.34-1.59,3.84-1.59s2.85.6,3.84,1.59c.98.98,1.59,2.34,1.59,3.84v10.86c0,3-2.43,5.43-5.43,5.43-1.5,0-2.86.61-3.84,1.59-.99.99-1.6,2.35-1.6,3.84,0,3-2.43,5.44-5.43,5.44h-10.86c-1.5,0-2.86-.61-3.84-1.59ZM83.7,67.3c0,3-2.44,5.44-5.44,5.44-1.49,0-2.85.6-3.84,1.58-.98.99-1.59,2.35-1.59,3.85,0,3-2.43,5.43-5.43,5.43-1.5,0-2.86-.61-3.84-1.59-.98-.99-1.59-2.34-1.59-3.84s.61-2.86,1.59-3.85c.98-.98,2.34-1.58,3.84-1.58,3,0,5.43-2.44,5.43-5.44v-10.86c0-1.5-.61-2.86-1.59-3.84-.98-.98-2.34-1.59-3.84-1.59-3,0-5.43,2.43-5.43,5.43,0,1.5-.61,2.86-1.59,3.84s-2.34,1.59-3.84,1.59-2.86-.61-3.85-1.59c-.98-.98-1.59-2.34-1.59-3.84s-.6-2.86-1.59-3.84c-.98-.98-2.34-1.59-3.84-1.59-3,0-5.43,2.43-5.43,5.43v10.86c0,1.5.61,2.86,1.59,3.84.98.99,2.34,1.6,3.84,1.6s2.86.6,3.84,1.58,1.59,2.35,1.59,3.85c0,3-2.43,5.43-5.43,5.43-1.5,0-2.86-.61-3.84-1.59-.98-.99-1.59-2.34-1.59-3.84s-.61-2.86-1.59-3.85c-.98-.98-2.34-1.58-3.84-1.58s-2.86-.61-3.84-1.6c-.99-.98-1.59-2.34-1.59-3.84v-10.86c0-3,2.43-5.43,5.43-5.43s5.43-2.44,5.43-5.43c0-1.5.61-2.86,1.59-3.85.98-.98,2.34-1.59,3.84-1.59s2.86.61,3.84,1.59c.99.99,1.59,2.35,1.59,3.85s.61,2.85,1.59,3.84c.99.98,2.35,1.59,3.85,1.59,3,0,5.43-2.44,5.43-5.43,0-1.5.61-2.86,1.59-3.85.98-.98,2.34-1.59,3.84-1.59s2.86.61,3.84,1.59c.98.99,1.59,2.35,1.59,3.85s.61,2.85,1.59,3.84c.99.98,2.35,1.59,3.84,1.59s2.86.61,3.85,1.59c.98.98,1.59,2.34,1.59,3.84v10.86Z"/>
</svg>