<?xml version="1.0" encoding="UTF-8"?>
<svg id="Layer_1" data-name="Layer 1" xmlns="http://www.w3.org/2000/svg" viewBox="0 0 100 100">
  <defs>
    <style>
      .cls-1 {
        fill: #fff;
      }
    </style>
  </defs>
  <g>
    <path d="M53.38,3.39h16.52c5.78,0,10.48,4.7,10.48,10.48v15.75c0,19.05-15.47,34.52-34.52,34.52h-15.75c-5.78,0-10.48-4.7-10.48-10.48v-16.52C19.62,18.52,34.75,3.39,53.38,3.39Z"/>
    <g>
      <path class="cls-1" d="M45.84,12.42c.95,0,1.82.39,2.44,1.01.62.62,1.01,1.49,1.01,2.44v6.9c0,1.91-1.55,3.45-3.45,3.45-.95,0-1.82.39-2.44,1.01-.62.62-1.01,1.49-1.01,2.44,0,1.91-1.55,3.45-3.45,3.45h-6.9c-.95,0-1.82-.39-2.44-1.01s-1.01-1.49-1.01-2.44.39-1.82,1.01-2.44c.62-.62,1.49-1.01,2.44-1.01h6.9c1.91,0,3.45-1.55,3.45-3.45v-6.9c0-.95.39-1.82,1.01-2.44.62-.62,1.49-1.01,2.44-1.01Z"/>
      <path class="cls-1" d="M58.62,28.51c.62-.62,1.49-1.01,2.44-1.01s1.82.39,2.44,1.01c.62.62,1.01,1.49,1.01,2.44s.39,1.82,1.01,2.44c.62.62,1.49,1.01,2.44,1.01s1.82.39,2.44,1.01c.62.62,1.01,1.49,1.01,2.44v6.9c0,1.91-1.55,3.45-3.45,3.45-.95,0-1.82.39-2.44,1.01-.62.62-1.01,1.49-1.01,2.44,0,1.91-1.55,3.45-3.45,3.45-.95,0-1.82-.39-2.44-1.01-.62-.62-1.01-1.49-1.01-2.44s.39-1.82,1.01-2.44c.62-.62,1.49-1.01,2.44-1.01,1.91,0,3.45-1.55,3.45-3.45v-6.9c0-.95-.39-1.82-1.01-2.44-.62-.62-1.49-1.01-2.44-1.01-1.91,0-3.45,1.55-3.45,3.45h0c0,1.91-1.55,3.45-3.45,3.45-.95,0-1.82-.39-2.44-1.01-.62-.62-1.01-1.49-1.01-2.44h0c0-.95-.39-1.82-1.01-2.44-.62-.62-1.49-1.01-2.44-1.01-1.91,0-3.45,1.55-3.45,3.45v6.9c0,.95.39,1.82,1.01,2.44s1.49,1.01,2.44,1.01,1.82.39,2.44,1.01c.62.62,1.01,1.49,1.01,2.44,0,1.91-1.55,3.45-3.45,3.45-.95,0-1.82-.39-2.44-1.01-.62-.62-1.01-1.49-1.01-2.44s-.39-1.82-1.01-2.44c-.62-.62-1.49-1.01-2.44-1.01s-1.82-.39-2.44-1.01c-.62-.62-1.01-1.49-1.01-2.44v-6.9c0-1.91,1.55-3.45,3.45-3.45s3.45-1.55,3.45-3.45c0-.95.39-1.82,1.01-2.44.62-.62,1.49-1.01,2.44-1.01s1.82.39,2.44,1.01c.62.62,1.01,1.49,1.01,2.44s.39,1.82,1.01,2.44c.62.62,1.49,1.01,2.44,1.01,1.91,0,3.45-1.55,3.45-3.45,0-.95.39-1.82,1.01-2.44Z"/>
    </g>
  </g>
  <g>
    <path d="M24.61,67.46h3.04v5.41l-1.06,23.62h-5.67l-1.03-23.62v-5.41h3.04v5.41l.84,18.76.84-18.76v-5.41Z"/>
    <path d="M28.74,67.46h3.04v29.03h-3.04v-29.03Z"/>
    <path d="M37.37,67.46c.42,0,.81.12,1.18.37s.7.59.98,1.02c.28.43.5.93.67,1.5.16.57.24,1.17.24,1.81v19.63c0,.64-.08,1.24-.24,1.81-.16.57-.38,1.07-.67,1.5-.28.43-.61.77-.98,1.02s-.76.37-1.18.37h-4.5v-29.03h4.5ZM37.4,72.16l-.03-.04h-1.47v19.71h1.47l.03-.04v-19.63Z"/>
    <path d="M46.05,67.46h3.04v29.03h-3.04v-12.18h-1.49v12.18h-3.04v-29.03h3.04v12.18h1.49v-12.18Z"/>
    <path d="M54.68,67.46h3.04v17.26c0,1.33-.21,2.5-.62,3.51-.42,1.01-.96,1.67-1.63,1.98v6.28h-3.04v-6.28c-.67-.31-1.21-.96-1.63-1.98-.42-1.01-.62-2.18-.62-3.51v-17.26h3.04v17.26c0,.5.08.87.23,1.1.15.24.32.35.5.35s.35-.12.5-.35c.15-.24.23-.6.23-1.1v-17.26Z"/>
    <path d="M63.31,67.46c.42,0,.81.12,1.18.37s.7.59.98,1.02c.28.43.5.93.67,1.5.16.57.24,1.17.24,1.81v19.75c0,.64-.08,1.24-.24,1.81-.16.57-.38,1.07-.67,1.5-.28.43-.61.77-.98,1.02s-.76.37-1.18.37h-1.44c-.42,0-.81-.12-1.18-.37-.37-.25-.7-.59-.98-1.02-.28-.43-.5-.93-.67-1.5-.16-.57-.24-1.17-.24-1.81v-19.75c0-.64.08-1.24.24-1.81.16-.57.38-1.07.67-1.5.28-.43.61-.77.98-1.02.37-.25.76-.37,1.18-.37h1.44ZM63.34,72.16l-.03-.04h-1.44l-.03.04v19.75s0,.04.03.04h1.44s.03-.01.03-.04v-19.75Z"/>
    <path d="M76.52,72.16l-.03-.04h-1.44s-.03.01-.03.04v24.33h-3.04v-24.33s0-.04-.03-.04h-1.44s-.03.01-.03.04v24.33h-3.04v-24.33c0-.64.08-1.24.24-1.81.16-.57.38-1.07.67-1.5.28-.43.61-.77.98-1.02.37-.25.76-.37,1.18-.37h1.44c.29,0,.56.06.81.17.25.11.5.26.73.46.24-.19.48-.35.73-.46.25-.11.52-.17.81-.17h1.44c.42,0,.81.12,1.18.37.37.25.7.59.98,1.02.28.43.5.93.67,1.5.16.57.24,1.17.24,1.81v24.33h-3.04v-24.33Z"/>
  </g>
</svg>